<?xml version="1.0" encoding="utf-8"?>
<!-- Generator: Adobe Illustrator 24.1.3, SVG Export Plug-In . SVG Version: 6.00 Build 0)  -->
<svg version="1.1" id="Layer_1" xmlns="http://www.w3.org/2000/svg" xmlns:xlink="http://www.w3.org/1999/xlink" x="0px" y="0px"
	 viewBox="0 0 239.1 48.6" style="enable-background:new 0 0 239.1 48.6;" xml:space="preserve">
<style type="text/css">
	.st0{fill:#25A569;}
	.st1{fill:#FFFFFF;}
</style>
<g id="Layer_2_1_">
	<g id="Layer_1-2">
		<path class="st0" d="M1,23.4L1,23.4c-0.6-0.1-0.9-0.5-0.9-1c0.4-4.3,1.8-8.4,4.3-12c0.3-0.4,0.9-0.5,1.3-0.2
			C6.1,10.5,6.3,11,6,11.5c-2.3,3.2-3.7,7-4,11C1.9,23,1.5,23.4,1,23.4z"/>
		<path class="st0" d="M7.8,8.6c-0.3,0-0.5-0.1-0.7-0.3c-0.3-0.4-0.3-1,0-1.3c6.4-6.3,15.8-8.5,24.3-5.8c0.5,0.2,0.7,0.7,0.6,1.2
			c-0.1,0.5-0.7,0.8-1.2,0.6c0,0,0,0,0,0c-2.2-0.7-4.4-1-6.7-1c-5.9,0-11.5,2.3-15.7,6.4C8.3,8.5,8,8.6,7.8,8.6z"/>
		<path class="st0" d="M10.9,44.7c-0.2,0-0.4-0.1-0.5-0.2c-1.4-0.9-2.7-2-3.8-3.2c-1.2-1.2-2.2-2.6-3.1-4c-0.9-1.4-1.6-3-2.2-4.5
			c-0.6-1.6-1-3.3-1.3-5c-0.1-0.5,0.2-1,0.8-1.1c0.5-0.1,1,0.2,1.1,0.8c0,0,0,0.1,0,0.1c0.2,1.6,0.6,3.1,1.1,4.6
			c0.6,1.5,1.3,2.9,2.1,4.2c0.8,1.3,1.8,2.6,2.8,3.7c1.1,1.1,2.3,2.1,3.5,3c0.4,0.3,0.5,0.9,0.3,1.3c0,0,0,0,0,0
			C11.5,44.6,11.2,44.7,10.9,44.7z"/>
		<path class="st0" d="M46.3,16.9c-0.4,0-0.7-0.3-0.9-0.6c-1.9-4.9-5.5-9-10.1-11.6c-0.5-0.2-0.7-0.8-0.4-1.3s0.8-0.7,1.3-0.4
			c0,0,0.1,0,0.1,0c5,2.8,8.9,7.2,11,12.6c0.2,0.5-0.1,1-0.5,1.2C46.5,16.9,46.4,16.9,46.3,16.9z"/>
		<path class="st0" d="M40.9,41.5c-0.5-0.1-0.9-0.6-0.9-1.1c0-0.2,0.1-0.4,0.2-0.5c4.1-4.2,6.4-9.8,6.4-15.7c0-1-0.1-2.1-0.2-3.1
			c-0.1-0.5,0.3-1,0.8-1.1c0,0,0,0,0,0c0.5,0,1,0.3,1.1,0.8c0.2,1.1,0.2,2.2,0.2,3.4c0,6.4-2.5,12.5-6.9,17
			C41.4,41.4,41.2,41.5,40.9,41.5z"/>
		<path class="st0" d="M24.4,48.6c-3,0-6-0.5-8.8-1.6c-0.5-0.2-0.8-0.7-0.6-1.2c0.2-0.5,0.7-0.8,1.2-0.6c0,0,0.1,0,0.1,0
			c2.6,1,5.3,1.5,8.1,1.5c1.9,0,3.9-0.2,5.7-0.7c1.8-0.5,3.5-1.2,5.2-2.1c0.4-0.3,1-0.1,1.3,0.3c0.3,0.4,0.1,1-0.3,1.3
			c0,0-0.1,0-0.1,0C32.6,47.5,28.5,48.5,24.4,48.6L24.4,48.6z"/>
		<path class="st0" d="M20.9,43.2c-0.1,0-0.1,0-0.2,0c-2.5-0.5-4.9-1.5-7-3c-2.1-1.4-3.9-3.3-5.2-5.4c-0.3-0.4-0.1-1,0.3-1.3
			c0.4-0.3,1-0.1,1.3,0.3c2.5,3.9,6.5,6.6,11.1,7.6c0.5,0.1,0.9,0.5,0.8,1C21.9,42.9,21.5,43.3,20.9,43.2L20.9,43.2z"/>
		<path class="st0" d="M25.7,43.5c-0.5,0-0.9-0.4-1-0.9c0-0.5,0.4-0.9,0.9-1c6-0.5,11.4-4,14.1-9.4c0.2-0.5,0.8-0.7,1.2-0.5
			c0.5,0.2,0.7,0.8,0.5,1.2c0,0,0,0.1-0.1,0.1c-1.5,2.9-3.7,5.4-6.4,7.2c-1.4,0.9-2.8,1.7-4.4,2.2C29.1,43,27.5,43.4,25.7,43.5
			L25.7,43.5z"/>
		<path class="st0" d="M42.5,28.6h-0.2c-0.5-0.1-0.9-0.6-0.8-1.1c0,0,0,0,0,0c0.2-1,0.3-2.1,0.3-3.2c0-1.4-0.2-2.8-0.5-4.1
			c-0.3-1.3-0.8-2.6-1.4-3.8c-0.2-0.5,0-1,0.5-1.2c0.4-0.2,1,0,1.2,0.4c1.9,3.8,2.5,8.1,1.8,12.3C43.4,28.2,43,28.6,42.5,28.6z"/>
		<path class="st0" d="M37.1,11.9c-0.2,0-0.5-0.1-0.7-0.3c-2.5-2.4-5.6-3.9-9-4.5C26.9,7,26.6,6.5,26.7,6c0.1-0.5,0.6-0.8,1.1-0.7
			c3.8,0.6,7.2,2.4,10,5c0.3,0.4,0.3,1,0,1.3C37.6,11.8,37.3,11.9,37.1,11.9z"/>
		<path class="st0" d="M15.9,8.9c-0.5-0.1-0.9-0.6-0.8-1.1c0-0.3,0.2-0.5,0.4-0.7c2.2-1.1,4.6-1.8,7-2c0.5,0,1,0.3,1,0.9
			c0,0.5-0.3,1-0.9,1l0,0c-2.2,0.2-4.3,0.8-6.3,1.8C16.2,8.9,16.1,8.9,15.9,8.9z"/>
		<path class="st0" d="M6.7,30.4c-0.4,0-0.8-0.3-0.9-0.7C3.8,23.2,5.5,16,10.3,11.1c0.3-0.4,0.9-0.5,1.3-0.1
			c0.4,0.3,0.5,0.9,0.1,1.3c0,0-0.1,0.1-0.1,0.1c-4.2,4.5-5.8,10.9-4,16.9c0.1,0.5-0.1,1-0.6,1.2C6.9,30.4,6.8,30.4,6.7,30.4z"/>
		<path class="st0" d="M24.3,38.6c-2.1,0-4.1-0.5-6-1.3c-0.5-0.2-0.7-0.7-0.5-1.2c0.2-0.5,0.7-0.7,1.2-0.5c0,0,0.1,0,0.1,0
			C22.7,37.2,27,37,30.5,35c0.4-0.4,1-0.4,1.4-0.1c0.4,0.4,0.4,1,0.1,1.4c-0.1,0.2-0.3,0.3-0.5,0.3C29.2,37.9,26.8,38.6,24.3,38.6z"
			/>
		<path class="st0" d="M35.7,32.1c-0.2,0-0.3-0.1-0.5-0.1c-0.4-0.3-0.6-0.8-0.3-1.3c0,0,0,0,0,0c1.1-1.9,1.7-4.1,1.7-6.3
			c0-0.5,0-1-0.1-1.5c0-0.5,0.3-1,0.8-1.1c0.5,0,0.9,0.3,1,0.8c0.1,0.6,0.1,1.2,0.1,1.8c0,2.6-0.7,5.1-2,7.3
			C36.3,31.9,36.1,32,35.7,32.1z"/>
		<path class="st0" d="M35.9,18.8c-0.3,0-0.7-0.2-0.8-0.5c-2.2-4-6.3-6.4-10.8-6.4c-0.5,0-1,0-1.5,0.1h-0.1c-0.5,0-0.9-0.4-0.9-0.8
			c0-0.5,0.3-1,0.8-1.1c0.6-0.1,1.2-0.1,1.8-0.1c5.2,0,10,2.8,12.5,7.4c0.2,0.5,0,1.1-0.5,1.3C36.2,18.7,36.1,18.8,35.9,18.8z"/>
		<path class="st0" d="M12.7,18.6c-0.2,0-0.3,0-0.5-0.1c-0.4-0.3-0.6-0.8-0.4-1.3c1.3-2.2,3.1-4,5.2-5.2c0.5-0.1,1.1,0.2,1.2,0.8
			c0.1,0.3,0,0.6-0.2,0.9c-1.9,1.1-3.4,2.6-4.5,4.5C13.4,18.4,13.1,18.6,12.7,18.6z"/>
		<path class="st0" d="M14.5,34.3c-0.3,0-0.5-0.1-0.7-0.3c-2.4-2.6-3.8-6.1-3.8-9.7c0-0.7,0-1.3,0.1-2c0-0.5,0.5-0.9,1-0.9
			c0.5,0,0.9,0.5,0.9,1c0,0,0,0.1,0,0.1c-0.1,0.6-0.1,1.2-0.1,1.7c0,3.1,1.2,6.1,3.3,8.4c0.3,0.4,0.3,1-0.1,1.3
			C15,34.2,14.7,34.3,14.5,34.3z"/>
		<path class="st0" d="M17.7,20.4c-0.3,0.1-0.6,0.1-0.8-0.1c-0.4-0.3-0.5-0.9-0.2-1.3c1.1-1.7,2.8-2.9,4.7-3.5
			c0.6-0.2,1.2-0.3,1.8-0.4c0.5,0,0.9,0.3,1,0.8c0.1,0.5-0.3,1-0.8,1.1c-0.5,0.1-1,0.2-1.5,0.3c-1.5,0.5-2.8,1.5-3.7,2.8
			C18.1,20.3,17.9,20.4,17.7,20.4z"/>
		<path class="st0" d="M32.8,24.2c-0.1,0-0.1,0-0.2,0c-0.5,0-0.9-0.3-1-0.8c-0.1-0.5-0.2-0.9-0.4-1.4c-0.5-1.5-1.5-2.8-2.8-3.7
			c-0.4-0.3-0.5-0.9-0.2-1.3c0.3-0.4,0.8-0.5,1.3-0.2c1.7,1.1,2.9,2.8,3.5,4.7c0.2,0.6,0.3,1.2,0.4,1.8
			C33.5,23.7,33.3,24.1,32.8,24.2z"/>
		<path class="st0" d="M27.2,33.1c-0.6,0.2-1.2,0.3-1.8,0.4c-0.5,0.1-1-0.2-1.1-0.7c-0.1-0.5,0.2-1,0.7-1.1c0,0,0.1,0,0.1,0
			c2.1-0.3,4-1.4,5.2-3.1c0.4-0.3,1.1-0.2,1.4,0.2c0.2,0.3,0.3,0.6,0.2,0.9C30.8,31.2,29.1,32.5,27.2,33.1z"/>
		<path class="st0" d="M19.8,32c-0.3,0.1-0.6,0.1-0.8-0.1c-1.7-1.1-2.9-2.8-3.5-4.7c-0.2-0.6-0.3-1.2-0.4-1.8
			c0.1-0.5,0.6-0.9,1.2-0.8c0.3,0.1,0.6,0.3,0.7,0.6c0.1,0.5,0.2,1,0.3,1.5c0.5,1.5,1.5,2.8,2.8,3.7c0.4,0.3,0.5,0.9,0.2,1.3
			C20.2,31.8,20,31.9,19.8,32z"/>
		<path class="st0" d="M24.3,22.9c0.8,0,1.4,0.6,1.4,1.4c0,0.8-0.6,1.4-1.4,1.4c-0.8,0-1.4-0.6-1.4-1.4c0,0,0,0,0,0
			C22.8,23.5,23.5,22.9,24.3,22.9 M24.3,21c-1.8,0-3.3,1.5-3.3,3.3s1.5,3.3,3.3,3.3c1.8,0,3.3-1.5,3.3-3.3c0,0,0,0,0,0
			C27.6,22.5,26.1,21,24.3,21L24.3,21z"/>
		<path class="st1" d="M68.6,14.3h-7.3V9.2h21v5.1h-7.3v18.8h-6.3V14.3z"/>
		<path class="st1" d="M80.8,16.9h5.5l0.1,2.4c0.3-0.8,0.9-1.5,1.6-2c0.7-0.5,1.6-0.7,2.4-0.7c0.6,0,1.3,0.1,1.8,0.4l-0.4,5.3
			c-0.7-0.3-1.4-0.4-2.1-0.4c-1-0.1-1.9,0.3-2.5,1.1c-0.6,1-0.9,2.1-0.8,3.2v7h-5.7V16.9z"/>
		<path class="st1" d="M98.9,33.6c-1.6,0.1-3.2-0.5-4.2-1.7c-1-1.5-1.6-3.3-1.4-5.1v-9.9h5.7v8.8c0,1.9,0.7,2.9,2.2,2.9
			c0.7,0,1.4-0.3,1.8-0.8c0.5-0.7,0.7-1.5,0.6-2.3v-8.6h5.7v16.2h-5.5l-0.1-2c-0.4,0.8-1,1.4-1.8,1.8
			C100.8,33.4,99.9,33.6,98.9,33.6z"/>
		<path class="st1" d="M117.2,33.6c-1.2,0-2.5-0.1-3.7-0.4c-1-0.2-2-0.6-2.8-1.2l0.6-4.1c0.8,0.5,1.7,0.9,2.7,1.2
			c0.9,0.3,1.9,0.4,2.9,0.4c1.4,0,2-0.3,2-1c0-0.3-0.2-0.6-0.5-0.8c-0.6-0.3-1.3-0.5-1.9-0.7c-1.6-0.3-3-1-4.3-2
			c-0.9-0.9-1.3-2.2-1.2-3.5c-0.1-1.5,0.6-2.9,1.9-3.8c1.5-1,3.3-1.5,5.1-1.4c1.1,0,2.2,0.1,3.2,0.4c0.9,0.2,1.8,0.5,2.6,0.9
			l-0.6,4.1c-0.8-0.4-1.6-0.7-2.4-0.9c-0.8-0.2-1.6-0.3-2.5-0.3c-1.2,0-1.7,0.3-1.7,1c0,0.3,0.2,0.6,0.5,0.8
			c0.6,0.3,1.3,0.5,1.9,0.6c1.6,0.3,3,1,4.2,2c0.9,0.9,1.4,2.2,1.3,3.5c0.1,1.5-0.7,2.9-1.9,3.8C121,33.3,119.1,33.7,117.2,33.6z"/>
		<path class="st1" d="M133.6,33.6c-1.7,0.1-3.4-0.4-4.6-1.6c-1.1-1.3-1.7-3.1-1.5-4.8v-5.8h-2.8v-4.6h2.8v-4.2h5.6v4.2h4.6v4.6
			h-4.6v4.5c-0.1,0.7,0.1,1.4,0.5,2c0.4,0.4,1,0.7,1.6,0.6c0.9,0,1.8-0.2,2.6-0.6l0.6,4.7c-0.7,0.3-1.4,0.6-2.1,0.7
			C135.4,33.5,134.6,33.6,133.6,33.6z"/>
		<path class="st1" d="M147.6,33.6c-1.1,0-2.1-0.1-3.1-0.3c-1-0.2-2-0.4-3-0.7c-0.8-0.3-1.6-0.6-2.3-1.1l0.6-5.1
			c1.1,0.7,2.3,1.2,3.5,1.6c1.3,0.4,2.6,0.6,4,0.6c0.9,0.1,1.9-0.1,2.7-0.6c0.6-0.3,1-1,0.9-1.6c0-0.4-0.1-0.8-0.4-1.1
			c-0.4-0.4-0.8-0.6-1.3-0.8c-0.8-0.3-1.6-0.6-2.4-0.8c-2.1-0.5-4-1.5-5.6-2.9c-1.2-1.3-1.8-3-1.7-4.7c-0.1-2.1,0.8-4.1,2.4-5.4
			c1.9-1.4,4.3-2.1,6.6-2c1.3,0,2.7,0.2,4,0.5c1.2,0.3,2.3,0.7,3.4,1.4l-0.8,4.9c-1-0.6-2-1-3.1-1.3c-1.1-0.3-2.2-0.5-3.3-0.5
			c-2.2,0-3.3,0.7-3.3,2.1c0,0.5,0.3,1.1,0.7,1.4c0.9,0.5,1.9,0.9,2.9,1.1c2.2,0.5,4.3,1.5,6.1,3c1.2,1.3,1.9,3,1.8,4.8
			c0.1,2.1-0.8,4.2-2.5,5.5C152.6,33,150.1,33.7,147.6,33.6z"/>
		<path class="st1" d="M166.1,33.6c-1.7,0.1-3.3-0.4-4.6-1.6c-1.1-1.3-1.7-3.1-1.5-4.8v-5.8h-2.8v-4.6h2.8v-4.2h5.6v4.2h4.6v4.6
			h-4.6v4.5c-0.1,0.7,0.1,1.4,0.5,2c0.4,0.4,1,0.7,1.6,0.6c0.9,0,1.8-0.2,2.6-0.6l0.6,4.7c-0.7,0.3-1.4,0.6-2.1,0.7
			C168,33.5,167,33.6,166.1,33.6z"/>
		<path class="st1" d="M176.9,33.6c-1.5,0.1-2.9-0.4-4-1.4c-1-1-1.5-2.3-1.5-3.7c0-1.5,0.6-2.9,1.7-3.9c1.3-1,2.9-1.6,4.6-1.5
			c0.6,0,1.3,0.1,1.9,0.2c0.6,0.1,1.2,0.3,1.8,0.5c0-0.9-0.4-1.7-1-2.3c-0.8-0.6-1.7-0.8-2.7-0.8c-1.8,0-3.5,0.5-5,1.5l-0.3-4.3
			c0.9-0.5,1.8-0.9,2.8-1.1c1.1-0.3,2.2-0.4,3.4-0.4c2.7,0,4.7,0.7,6.1,2c1.5,1.5,2.2,3.6,2.1,5.7v9h-5.1l-0.1-1.6
			C180.5,32.9,178.7,33.7,176.9,33.6z M178.7,29.9c0.8,0,1.5-0.3,2-0.8c0.5-0.6,0.9-1.4,0.9-2.2c-0.8-0.3-1.7-0.5-2.6-0.5
			c-0.6,0-1.2,0.1-1.7,0.5c-0.4,0.3-0.7,0.8-0.6,1.3c0,0.5,0.2,0.9,0.6,1.3C177.6,29.7,178.1,29.9,178.7,29.9z"/>
		<path class="st1" d="M188.8,16.9h5.5l0.1,2c0.4-0.8,1-1.5,1.8-1.9c0.9-0.4,1.9-0.7,2.9-0.6c1,0,1.9,0.2,2.8,0.7
			c0.8,0.5,1.5,1.2,1.9,2c0.5-0.9,1.1-1.5,2-2c0.9-0.5,2-0.7,3.1-0.7c1.6-0.1,3.2,0.5,4.3,1.8c1.1,1.5,1.6,3.3,1.5,5.1v9.9h-5.6
			v-8.8c0.1-0.8-0.1-1.5-0.5-2.2c-0.4-0.5-1-0.8-1.6-0.7c-0.7,0-1.3,0.3-1.7,0.8c-0.4,0.7-0.6,1.5-0.6,2.3v8.6h-5.6v-8.8
			c0.1-0.8-0.1-1.5-0.5-2.2c-0.4-0.5-1-0.8-1.6-0.7c-0.7,0-1.3,0.3-1.7,0.8c-0.4,0.7-0.6,1.5-0.6,2.3v8.6h-5.6L188.8,16.9z"/>
		<path class="st1" d="M216.7,16.9h5.3l0.1,1.9c0.5-0.8,1.2-1.4,2-1.7c0.9-0.4,1.8-0.6,2.8-0.6c1.3,0,2.6,0.4,3.8,1.1
			c1.1,0.7,2.1,1.8,2.6,3c0.7,1.4,1,2.9,1,4.5c0,1.5-0.3,3-0.9,4.4c-0.6,1.3-1.5,2.4-2.7,3.1c-1.2,0.8-2.5,1.2-3.9,1.2
			c-0.9,0-1.7-0.2-2.5-0.5c-0.7-0.3-1.4-0.8-1.9-1.4v9.2h-5.7L216.7,16.9z M225.3,28.6c0.9,0,1.8-0.3,2.4-1c0.6-0.7,1-1.6,0.9-2.6
			c0-0.9-0.3-1.9-0.9-2.6c-0.6-0.7-1.5-1-2.4-1c-0.9,0-1.8,0.3-2.4,1c-0.6,0.7-0.9,1.6-0.9,2.6c0,0.9,0.3,1.9,0.9,2.6
			C223.6,28.2,224.5,28.6,225.3,28.6L225.3,28.6z"/>
		<path class="st1" d="M235.5,16.5h-0.6v-0.4h1.8v0.4H236v1.6h-0.6L235.5,16.5z"/>
		<path class="st1" d="M236.8,16.1h0.5l0.6,1.2l0.6-1.2h0.5l0.1,2h-0.5v-1.2l-0.4,0.9h-0.4l-0.5-0.9v1.2h-0.5L236.8,16.1z"/>
	</g>
</g>
</svg>
